<svg id="canvas" height="auto" xmlns="http://www.w3.org/2000/svg" version="1.1" xmlns:xlink="http://www.w3.org/1999/xlink" viewBox="0 0 900 512" width="auto" style="width: auto; height: auto;"><rect width="900" height="512" fill="#00000000"/><path d="M102.2228782313868 294.2513423220988C68.16146095521918 318.00571527703084 31.41030662433127 338.6228098625554 -10.196443808852393 344.3744021233381C-51.80319424203606 350.12599438412076 -107.70035850163544 349.0822115618596 -147.41762436771512 328.7608958867945C-187.1348902337948 308.43958021172944 -216.0720966166401 256.32655886381474 -248.5000390053305 222.44650807294727C-280.9279813940209 188.5664572820798 -326.3788363726236 168.66010519179974 -341.9852786998576 125.48059114158946C-357.5917210270916 82.30107709137917 -341.7905450615714 11.082577999717614 -342.1386929687346 -36.63057622831445C-342.48684087589777 -84.34373045634652 -358.3009232249476 -125.38642260957599 -344.07416614283693 -160.79833422660312C-329.84740906072625 -196.21024584363025 -286.82218349042853 -219.93128629344403 -256.77815047607055 -249.10204593047726C-226.73411746171263 -278.2728055675105 -207.0860432108376 -319.077280702097 -163.8099680566892 -335.8228920488025C-120.5338929025408 -352.56850339550795 -48.607189063545775 -350.0784762241567 2.878300448819857 -349.57571401071016C54.36378996118549 -349.0729517972636 115.68890995881537 -348.9262904932561 145.1029690175045 -332.8063187681234C174.51702807619358 -316.6863470429907 159.77623108934665 -281.9068245753986 179.3626548009546 -252.85588365991384C198.94907851256255 -223.80494274442907 232.41072557705274 -202.4729416335508 262.6215112871523 -158.50067327521478C292.8322969972519 -114.52840491687877 346.5553803139802 -40.999784586058695 360.6273690615524 10.97772649010227C374.69935780912454 62.955237566263236 374.79599530815165 121.55265353114368 347.0534437725852 153.36439318175098C319.3108922370187 185.17613283235835 234.97715410501974 178.36700620368822 194.17205984815337 201.84816439374617C153.366965591287 225.32932258380413 136.28429550755442 270.4969693671668 102.2228782313868 294.2513423220988C68.16146095521918 318.00571527703084 31.41030662433127 338.6228098625554 -10.196443808852393 344.3744021233381 " fill="url(#SvgjsLinearGradient1060)"/><defs><linearGradient gradientTransform="matrix(1,0,0,1,0,0)" id="SvgjsLinearGradient1060"><stop stop-color="#ec4899ff" offset="0"/><stop stop-color="#ec9b48ff" offset="1"/></linearGradient><linearGradient gradientTransform="matrix(1,0,0,1,0,0)" id="SvgjsLinearGradient1061"><stop stop-color="#ec4899ff" offset="0"/><stop stop-color="#ec9b48ff" offset="1"/></linearGradient></defs><path d="M1000.362475133935 903.4254622667688C969.7146647299862 933.5004053025904 949.6448557416227 982.6284962661098 910.6349942008637 995.2913028186113C871.6251326601048 1007.9541093711127 808.273182129401 997.6191949541475 766.3033058893809 979.4023015817777C724.333429649361 961.1854082094079 692.8146422727083 919.6386997870428 658.815736760744 885.9899425843927C624.8168312487799 852.3411853817425 579.857210850769 824.8401451859243 562.3098728175955 777.5097583658767C544.762534784422 730.1793715458291 553.9193534632797 653.466992709076 553.531708561703 602.0076216641075C553.1440636601264 550.548250619139 542.5722961853958 506.0345123938722 559.9840034081358 468.7535320960659C577.3957106308759 431.47255179825953 625.2987363381646 409.5703544979939 658.0019518981434 378.32173987726935C690.7051674581221 347.0731252565449 721.2506953044914 299.61029417965347 756.203296768008 281.261844371719C791.1558982315247 262.9133945637845 827.813867103516 268.5679538124289 867.7175606792433 268.23104102966244C907.6212542549706 267.89412824689595 955.6851190620946 262.0297655663964 995.625458222372 279.2403676751202C1035.5657973826494 296.45096978384396 1073.5080527832006 340.1581726691219 1107.3595956409072 371.49465368200515C1141.2111384986138 402.8311346948883 1189.472560591168 432.4513507050915 1198.7347153686114 467.25925375241945C1207.996870146055 502.0671567997474 1169.1033508108399 540.6677618228002 1162.932524305568 580.342071965973C1156.7616978002961 620.0163821091458 1173.1115342838154 666.2218525051712 1161.7097563369803 705.305114611456C1150.307978390145 744.3883767177409 1121.4130701583974 781.8215866611299 1094.5218566245567 814.8416446036821C1067.6306430907157 847.8617025462343 1031.0102855378839 873.3505192309473 1000.362475133935 903.4254622667688C969.7146647299862 933.5004053025904 949.6448557416227 982.6284962661098 910.6349942008637 995.2913028186113 " fill="url(#SvgjsLinearGradient1061)" transform="matrix(-1,1.2246467991473532e-16,-1.2246467991473532e-16,-1,1750.1531982421875,1267.8886108398438)"/></svg>