<svg id="canvas" height="auto" xmlns="http://www.w3.org/2000/svg" version="1.1" xmlns:xlink="http://www.w3.org/1999/xlink" viewBox="0 0 900 512" width="auto" style="width: auto; height: auto;"><defs><linearGradient gradientTransform="matrix(6.123233995736766e-17,1,-1,6.123233995736766e-17,0,0)" id="SvgjsLinearGradient1015"><stop stop-color="#00000000" offset="0"/><stop stop-color="#00000000" offset="1"/></linearGradient><linearGradient gradientTransform="matrix(-0.25881904510252085,0.9659258262890683,-0.9659258262890683,-0.25881904510252085,0,0)" id="SvgjsLinearGradient1016"><stop stop-color="#75dcd7ff" offset="0"/><stop stop-color="#2fbcb5ff" offset="1"/></linearGradient><linearGradient gradientTransform="matrix(-0.25881904510252085,0.9659258262890683,-0.9659258262890683,-0.25881904510252085,0,0)" id="SvgjsLinearGradient1017"><stop stop-color="#061918ff" offset="0"/><stop stop-color="#2fbcb5ff" offset="1"/></linearGradient></defs><rect width="900" height="512" fill="url(#SvgjsLinearGradient1015)"/><g transform="matrix(0.4103320820627905,0,0,0.4103320820627905,-175.72103954528842,194.69138419270277)"><path d="M291 448.5L369.5 2L2 448.5H291Z" fill="url(#SvgjsLinearGradient1016)" transform="matrix(1,0,0,1,-300,328.1712272358699)"/><path d="M290.5 448L370 2.5L708.5 448H290.5Z" fill="url(#SvgjsLinearGradient1017)" transform="matrix(1,0,0,1,-300,328.1712272358699)"/></g><g transform="matrix(0.30917403748994254,0,0,0.30917403748994254,1.381651925020115,259.39825499888946)"><path d="M291 448.5L369.5 2L2 448.5H291Z" fill="url(#SvgjsLinearGradient1016)" transform="matrix(1,0,0,1,0,373.4900312045057)"/><path d="M290.5 448L370 2.5L708.5 448H290.5Z" fill="url(#SvgjsLinearGradient1017)" transform="matrix(1,0,0,1,0,373.4900312045057)"/></g><g transform="matrix(0.8,0,0,0.8,60.39999999999998,31.120001220703116)"><path d="M291 448.5L369.5 2L2 448.5H291Z" fill="url(#SvgjsLinearGradient1016)" transform="matrix(1,0,0,1,300,153.59999999999997)"/><path d="M290.5 448L370 2.5L708.5 448H290.5Z" fill="url(#SvgjsLinearGradient1017)" transform="matrix(1,0,0,1,300,153.59999999999997)"/></g><g transform="matrix(0.8,0,0,0.8,120.39999999999998,31.120001220703116)"><path d="M291 448.5L369.5 2L2 448.5H291Z" fill="url(#SvgjsLinearGradient1016)" transform="matrix(1,0,0,1,600,153.59999999999997)"/><path d="M290.5 448L370 2.5L708.5 448H290.5Z" fill="url(#SvgjsLinearGradient1017)" transform="matrix(1,0,0,1,600,153.59999999999997)"/></g></svg>